<svg xmlns="http://www.w3.org/2000/svg" xmlns:xlink="http://www.w3.org/1999/xlink" width="40" zoomAndPan="magnify" viewBox="0 0 30 30.000001" height="40" preserveAspectRatio="xMidYMid meet" version="1.0"><defs><clipPath id="03ff377ef6"><path d="M 0.484375 0 L 29.515625 0 L 29.515625 29.03125 L 0.484375 29.03125 Z M 0.484375 0 " clip-rule="nonzero"/></clipPath><clipPath id="fc82cd5fce"><path d="M 6.867188 6.382812 L 23.132812 6.382812 L 23.132812 22.648438 L 6.867188 22.648438 Z M 6.867188 6.382812 " clip-rule="nonzero"/></clipPath><clipPath id="b4b8d0d2c1"><path d="M 15 6.382812 C 10.507812 6.382812 6.867188 10.023438 6.867188 14.515625 C 6.867188 19.007812 10.507812 22.648438 15 22.648438 C 19.492188 22.648438 23.132812 19.007812 23.132812 14.515625 C 23.132812 10.023438 19.492188 6.382812 15 6.382812 Z M 15 6.382812 " clip-rule="nonzero"/></clipPath><clipPath id="5fb0611e7c"><path d="M 7.167969 7 L 23 7 L 23 22.183594 L 7.167969 22.183594 Z M 7.167969 7 " clip-rule="nonzero"/></clipPath></defs><path fill="#e1c167" d="M 15 26.242188 C 11.890625 26.242188 8.910156 25.003906 6.710938 22.804688 C 4.511719 20.609375 3.277344 17.625 3.277344 14.515625 C 3.277344 11.40625 4.511719 8.425781 6.710938 6.226562 C 8.910156 4.027344 11.890625 2.792969 15 2.792969 C 18.109375 2.792969 21.089844 4.027344 23.289062 6.226562 C 25.488281 8.425781 26.722656 11.40625 26.722656 14.515625 C 26.722656 17.625 25.488281 20.609375 23.289062 22.804688 C 21.089844 25.003906 18.109375 26.242188 15 26.242188 Z M 15 27.914062 C 18.554688 27.914062 21.960938 26.503906 24.476562 23.992188 C 26.988281 21.476562 28.398438 18.070312 28.398438 14.515625 C 28.398438 10.960938 26.988281 7.554688 24.476562 5.042969 C 21.960938 2.527344 18.554688 1.117188 15 1.117188 C 11.445312 1.117188 8.039062 2.527344 5.523438 5.042969 C 3.011719 7.554688 1.601562 10.960938 1.601562 14.515625 C 1.601562 18.070312 3.011719 21.476562 5.523438 23.992188 C 8.039062 26.503906 11.445312 27.914062 15 27.914062 Z M 15 27.914062 " fill-opacity="1" fill-rule="nonzero"/><g clip-path="url(#03ff377ef6)"><path stroke-linecap="butt" transform="matrix(1.116625, 0, 0, 1.116625, 0.48387, 0.00000193548)" fill="none" stroke-linejoin="miter" d="M 13 23.501334 C 10.215382 23.501334 7.546207 22.392385 5.576684 20.422862 C 3.607162 18.456838 2.50171 15.784164 2.50171 12.999546 C 2.50171 10.214928 3.607162 7.545753 5.576684 5.576231 C 7.546207 3.606708 10.215382 2.501257 13 2.501257 C 15.784618 2.501257 18.453793 3.606708 20.423316 5.576231 C 22.392838 7.545753 23.49829 10.214928 23.49829 12.999546 C 23.49829 15.784164 22.392838 18.456838 20.423316 20.422862 C 18.453793 22.392385 15.784618 23.501334 13 23.501334 Z M 13 24.998591 C 16.18342 24.998591 19.233906 23.735718 21.486788 21.486334 C 23.736172 19.233453 24.999045 16.182967 24.999045 12.999546 C 24.999045 9.816126 23.736172 6.76564 21.486788 4.516257 C 19.233906 2.263375 16.18342 1.000502 13 1.000502 C 9.81658 1.000502 6.766094 2.263375 4.513212 4.516257 C 2.263828 6.76564 1.000955 9.816126 1.000955 12.999546 C 1.000955 16.182967 2.263828 19.233453 4.513212 21.486334 C 6.766094 23.735718 9.81658 24.998591 13 24.998591 Z M 13 24.998591 " stroke="#e1c167" stroke-width="2" stroke-opacity="1" stroke-miterlimit="4"/></g><path fill="#e1c167" d="M 16.558594 12.152344 L 12.722656 12.632812 L 12.585938 13.269531 L 13.339844 13.40625 C 13.832031 13.523438 13.929688 13.703125 13.820312 14.191406 L 12.585938 20 C 12.261719 21.503906 12.761719 22.210938 13.9375 22.210938 C 14.851562 22.210938 15.910156 21.789062 16.390625 21.210938 L 16.539062 20.511719 C 16.203125 20.808594 15.714844 20.925781 15.390625 20.925781 C 14.929688 20.925781 14.761719 20.601562 14.882812 20.03125 Z M 16.675781 8.652344 C 16.675781 9.097656 16.5 9.523438 16.183594 9.839844 C 15.871094 10.152344 15.445312 10.328125 15 10.328125 C 14.554688 10.328125 14.128906 10.152344 13.816406 9.839844 C 13.5 9.523438 13.324219 9.097656 13.324219 8.652344 C 13.324219 8.210938 13.5 7.785156 13.816406 7.46875 C 14.128906 7.15625 14.554688 6.980469 15 6.980469 C 15.445312 6.980469 15.871094 7.15625 16.183594 7.46875 C 16.5 7.785156 16.675781 8.210938 16.675781 8.652344 Z M 16.675781 8.652344 " fill-opacity="1" fill-rule="nonzero"/><g clip-path="url(#fc82cd5fce)"><g clip-path="url(#b4b8d0d2c1)"><path fill="#000000" d="M 6.867188 6.382812 L 23.132812 6.382812 L 23.132812 22.648438 L 6.867188 22.648438 Z M 6.867188 6.382812 " fill-opacity="1" fill-rule="nonzero"/></g></g><g clip-path="url(#5fb0611e7c)"><path fill="#e1c167" d="M 17.113281 14.59375 L 22.054688 9.652344 C 22.640625 9.066406 22.640625 8.113281 22.054688 7.527344 C 21.46875 6.945312 20.519531 6.945312 19.933594 7.527344 L 14.992188 12.472656 L 10.050781 7.53125 C 9.464844 6.945312 8.515625 6.945312 7.929688 7.53125 C 7.34375 8.113281 7.34375 9.066406 7.929688 9.652344 L 12.871094 14.59375 L 7.917969 19.546875 C 7.332031 20.132812 7.332031 21.082031 7.917969 21.667969 C 8.210938 21.960938 8.59375 22.105469 8.976562 22.105469 C 9.359375 22.105469 9.746094 21.960938 10.039062 21.667969 L 14.992188 16.714844 L 19.933594 21.65625 C 20.226562 21.949219 20.609375 22.09375 20.992188 22.09375 C 21.378906 22.09375 21.761719 21.949219 22.054688 21.65625 C 22.640625 21.070312 22.640625 20.121094 22.054688 19.535156 Z M 17.113281 14.59375 " fill-opacity="1" fill-rule="nonzero"/></g></svg>